<mxfile host="app.diagrams.net" modified="2022-06-07T16:13:37.277Z" agent="5.0 (Macintosh; Intel Mac OS X 10_15_7) AppleWebKit/537.36 (KHTML, like Gecko) Chrome/102.0.5005.61 Safari/537.36" etag="8KZTTV0BHc2YCV-S2fUp" version="19.0.0" type="github">
  <diagram id="kgpKYQtTHZ0yAKxKKP6v" name="Page-1">
    <mxGraphModel dx="610" dy="310" grid="1" gridSize="10" guides="1" tooltips="1" connect="1" arrows="1" fold="1" page="1" pageScale="1" pageWidth="850" pageHeight="1100" math="0" shadow="0">
      <root>
        <mxCell id="0" />
        <mxCell id="1" parent="0" />
        <mxCell id="3nuBFxr9cyL0pnOWT2aG-1" value="Storefront" style="shape=umlLifeline;perimeter=lifelinePerimeter;container=1;collapsible=0;recursiveResize=0;rounded=0;shadow=0;strokeWidth=1;" parent="1" vertex="1">
          <mxGeometry x="120" y="80" width="100" height="640" as="geometry" />
        </mxCell>
        <mxCell id="3nuBFxr9cyL0pnOWT2aG-2" value="" style="points=[];perimeter=orthogonalPerimeter;rounded=0;shadow=0;strokeWidth=1;" parent="3nuBFxr9cyL0pnOWT2aG-1" vertex="1">
          <mxGeometry x="45" y="70" width="10" height="530" as="geometry" />
        </mxCell>
        <mxCell id="3nuBFxr9cyL0pnOWT2aG-3" value="CN starts &#xa;OrderCnToCF" style="verticalAlign=bottom;startArrow=oval;endArrow=block;startSize=8;shadow=0;strokeWidth=1;" parent="3nuBFxr9cyL0pnOWT2aG-1" target="3nuBFxr9cyL0pnOWT2aG-2" edge="1">
          <mxGeometry x="-1" y="-40" relative="1" as="geometry">
            <mxPoint x="-15" y="70" as="sourcePoint" />
            <mxPoint as="offset" />
          </mxGeometry>
        </mxCell>
        <mxCell id="3nuBFxr9cyL0pnOWT2aG-4" value="" style="points=[];perimeter=orthogonalPerimeter;rounded=0;shadow=0;strokeWidth=1;" parent="3nuBFxr9cyL0pnOWT2aG-1" vertex="1">
          <mxGeometry x="50" y="120" width="10" height="170" as="geometry" />
        </mxCell>
        <mxCell id="4xwUGQLQeTpRIHx0-2DB-11" value="" style="points=[];perimeter=orthogonalPerimeter;rounded=0;shadow=0;strokeWidth=1;" parent="3nuBFxr9cyL0pnOWT2aG-1" vertex="1">
          <mxGeometry x="50" y="360" width="10" height="100" as="geometry" />
        </mxCell>
        <mxCell id="lhS4QoThq6orm3_5Lqhh-11" value="PATCH /baskets/{{cnBasketID}}" style="edgeStyle=orthogonalEdgeStyle;rounded=0;orthogonalLoop=1;jettySize=auto;html=1;exitX=1.242;exitY=0.021;exitDx=0;exitDy=0;exitPerimeter=0;" edge="1" parent="3nuBFxr9cyL0pnOWT2aG-1" source="3nuBFxr9cyL0pnOWT2aG-2">
          <mxGeometry x="-0.018" relative="1" as="geometry">
            <mxPoint x="60" y="100" as="sourcePoint" />
            <mxPoint x="250" y="80" as="targetPoint" />
            <Array as="points">
              <mxPoint x="57" y="80" />
            </Array>
            <mxPoint as="offset" />
          </mxGeometry>
        </mxCell>
        <mxCell id="3nuBFxr9cyL0pnOWT2aG-5" value="OCAPI Hook" style="shape=umlLifeline;perimeter=lifelinePerimeter;container=1;collapsible=0;recursiveResize=0;rounded=0;shadow=0;strokeWidth=1;" parent="1" vertex="1">
          <mxGeometry x="325" y="80" width="100" height="640" as="geometry" />
        </mxCell>
        <mxCell id="3nuBFxr9cyL0pnOWT2aG-6" value="" style="points=[];perimeter=orthogonalPerimeter;rounded=0;shadow=0;strokeWidth=1;" parent="3nuBFxr9cyL0pnOWT2aG-5" vertex="1">
          <mxGeometry x="45" y="80" width="10" height="520" as="geometry" />
        </mxCell>
        <mxCell id="4xwUGQLQeTpRIHx0-2DB-1" value="SFCC Guest &#xa;Session" style="shape=umlLifeline;perimeter=lifelinePerimeter;container=1;collapsible=0;recursiveResize=0;rounded=0;shadow=0;strokeWidth=1;" parent="1" vertex="1">
          <mxGeometry x="510" y="80" width="100" height="640" as="geometry" />
        </mxCell>
        <mxCell id="4xwUGQLQeTpRIHx0-2DB-2" value="" style="points=[];perimeter=orthogonalPerimeter;rounded=0;shadow=0;strokeWidth=1;" parent="4xwUGQLQeTpRIHx0-2DB-1" vertex="1">
          <mxGeometry x="45" y="80" width="10" height="520" as="geometry" />
        </mxCell>
        <mxCell id="4xwUGQLQeTpRIHx0-2DB-3" value="orderCnToCF === true&lt;br&gt;c_natg_selectedCN === {{cnID}}" style="edgeStyle=orthogonalEdgeStyle;rounded=0;orthogonalLoop=1;jettySize=auto;html=1;" parent="1" edge="1">
          <mxGeometry x="0.0409" y="20" relative="1" as="geometry">
            <mxPoint x="390" y="330" as="sourcePoint" />
            <mxPoint x="555" y="330" as="targetPoint" />
            <Array as="points">
              <mxPoint x="380" y="330" />
              <mxPoint x="380" y="330" />
            </Array>
            <mxPoint as="offset" />
          </mxGeometry>
        </mxCell>
        <mxCell id="4xwUGQLQeTpRIHx0-2DB-4" value="POST /baskets" style="edgeStyle=orthogonalEdgeStyle;rounded=0;orthogonalLoop=1;jettySize=auto;html=1;entryX=-0.145;entryY=0.173;entryDx=0;entryDy=0;entryPerimeter=0;" parent="1" target="4xwUGQLQeTpRIHx0-2DB-2" edge="1">
          <mxGeometry x="-0.0526" relative="1" as="geometry">
            <mxPoint x="180" y="280" as="sourcePoint" />
            <mxPoint x="550" y="250" as="targetPoint" />
            <Array as="points">
              <mxPoint x="180" y="250" />
            </Array>
            <mxPoint as="offset" />
          </mxGeometry>
        </mxCell>
        <mxCell id="4xwUGQLQeTpRIHx0-2DB-5" value="{{guestBasketID}}" style="edgeStyle=orthogonalEdgeStyle;rounded=0;orthogonalLoop=1;jettySize=auto;html=1;" parent="1" source="4xwUGQLQeTpRIHx0-2DB-2" edge="1">
          <mxGeometry x="-0.016" relative="1" as="geometry">
            <Array as="points">
              <mxPoint x="179" y="270" />
            </Array>
            <mxPoint as="offset" />
            <mxPoint x="179" y="270" as="targetPoint" />
          </mxGeometry>
        </mxCell>
        <mxCell id="4xwUGQLQeTpRIHx0-2DB-6" value="POST&amp;nbsp;/baskets/{{guestBasketID}}/items" style="edgeStyle=orthogonalEdgeStyle;rounded=0;orthogonalLoop=1;jettySize=auto;html=1;entryX=-0.1;entryY=0.367;entryDx=0;entryDy=0;entryPerimeter=0;" parent="1" edge="1" target="4xwUGQLQeTpRIHx0-2DB-2">
          <mxGeometry x="0.0134" y="1" relative="1" as="geometry">
            <mxPoint x="181" y="351" as="sourcePoint" />
            <mxPoint x="555" y="312" as="targetPoint" />
            <Array as="points">
              <mxPoint x="181" y="351" />
            </Array>
            <mxPoint as="offset" />
          </mxGeometry>
        </mxCell>
        <mxCell id="4xwUGQLQeTpRIHx0-2DB-7" value="SFCC CN&#xa;Session" style="shape=umlLifeline;perimeter=lifelinePerimeter;container=1;collapsible=0;recursiveResize=0;rounded=0;shadow=0;strokeWidth=1;" parent="1" vertex="1">
          <mxGeometry x="660" y="80" width="100" height="640" as="geometry" />
        </mxCell>
        <mxCell id="4xwUGQLQeTpRIHx0-2DB-8" value="" style="points=[];perimeter=orthogonalPerimeter;rounded=0;shadow=0;strokeWidth=1;" parent="4xwUGQLQeTpRIHx0-2DB-7" vertex="1">
          <mxGeometry x="45" y="80" width="10" height="520" as="geometry" />
        </mxCell>
        <mxCell id="4xwUGQLQeTpRIHx0-2DB-9" style="edgeStyle=orthogonalEdgeStyle;rounded=0;orthogonalLoop=1;jettySize=auto;html=1;" parent="1" source="3nuBFxr9cyL0pnOWT2aG-2" edge="1">
          <mxGeometry relative="1" as="geometry">
            <mxPoint x="705" y="391" as="targetPoint" />
            <Array as="points">
              <mxPoint x="270" y="391" />
              <mxPoint x="270" y="391" />
            </Array>
          </mxGeometry>
        </mxCell>
        <mxCell id="4xwUGQLQeTpRIHx0-2DB-10" value="GET&amp;nbsp;/customers/{{cnCustomerID}}/addresses" style="edgeLabel;html=1;align=center;verticalAlign=middle;resizable=0;points=[];" parent="4xwUGQLQeTpRIHx0-2DB-9" vertex="1" connectable="0">
          <mxGeometry x="-0.6685" relative="1" as="geometry">
            <mxPoint x="112" y="-1" as="offset" />
          </mxGeometry>
        </mxCell>
        <mxCell id="lhS4QoThq6orm3_5Lqhh-1" style="edgeStyle=orthogonalEdgeStyle;rounded=0;orthogonalLoop=1;jettySize=auto;html=1;" edge="1" parent="1" source="4xwUGQLQeTpRIHx0-2DB-8">
          <mxGeometry relative="1" as="geometry">
            <mxPoint x="380" y="420" as="targetPoint" />
          </mxGeometry>
        </mxCell>
        <mxCell id="lhS4QoThq6orm3_5Lqhh-14" value="{{cNAddresses}}" style="edgeLabel;html=1;align=center;verticalAlign=middle;resizable=0;points=[];" vertex="1" connectable="0" parent="lhS4QoThq6orm3_5Lqhh-1">
          <mxGeometry x="0.2655" y="1" relative="1" as="geometry">
            <mxPoint as="offset" />
          </mxGeometry>
        </mxCell>
        <mxCell id="lhS4QoThq6orm3_5Lqhh-6" value="&lt;meta charset=&quot;utf-8&quot;&gt;&lt;span style=&quot;color: rgb(0, 0, 0); font-family: Helvetica; font-size: 11px; font-style: normal; font-variant-ligatures: normal; font-variant-caps: normal; font-weight: 400; letter-spacing: normal; orphans: 2; text-align: center; text-indent: 0px; text-transform: none; widows: 2; word-spacing: 0px; -webkit-text-stroke-width: 0px; background-color: rgb(255, 255, 255); text-decoration-thickness: initial; text-decoration-style: initial; text-decoration-color: initial; float: none; display: inline !important;&quot;&gt;POST customers/auth type:guest&lt;/span&gt;" style="edgeStyle=orthogonalEdgeStyle;rounded=0;orthogonalLoop=1;jettySize=auto;html=1;entryX=0.048;entryY=0.076;entryDx=0;entryDy=0;entryPerimeter=0;" edge="1" parent="1" source="3nuBFxr9cyL0pnOWT2aG-4" target="4xwUGQLQeTpRIHx0-2DB-2">
          <mxGeometry x="0.0263" relative="1" as="geometry">
            <mxPoint x="310" y="285" as="targetPoint" />
            <Array as="points">
              <mxPoint x="175" y="199" />
            </Array>
            <mxPoint as="offset" />
          </mxGeometry>
        </mxCell>
        <mxCell id="lhS4QoThq6orm3_5Lqhh-8" value="{{guestToken}}" style="edgeStyle=orthogonalEdgeStyle;rounded=0;orthogonalLoop=1;jettySize=auto;html=1;" edge="1" parent="1" source="4xwUGQLQeTpRIHx0-2DB-2">
          <mxGeometry relative="1" as="geometry">
            <mxPoint x="180" y="220" as="targetPoint" />
            <Array as="points">
              <mxPoint x="310" y="220" />
              <mxPoint x="310" y="220" />
            </Array>
          </mxGeometry>
        </mxCell>
        <mxCell id="lhS4QoThq6orm3_5Lqhh-9" value="orderCnToCF === true&lt;br&gt;c_natg_selectedCN === {{cnID}}&lt;br&gt;PATCH /baskets/{{guestBasketID}}" style="edgeStyle=orthogonalEdgeStyle;rounded=0;orthogonalLoop=1;jettySize=auto;html=1;" edge="1" parent="1">
          <mxGeometry x="-0.0501" y="20" relative="1" as="geometry">
            <mxPoint x="180" y="330" as="sourcePoint" />
            <mxPoint x="369.4999999999999" y="330" as="targetPoint" />
            <Array as="points">
              <mxPoint x="285" y="330" />
              <mxPoint x="285" y="330" />
            </Array>
            <mxPoint as="offset" />
          </mxGeometry>
        </mxCell>
        <mxCell id="lhS4QoThq6orm3_5Lqhh-10" value="orderCnToCF === true&lt;br&gt;c_natg_selectedCN === {{cnID}}" style="edgeStyle=orthogonalEdgeStyle;rounded=0;orthogonalLoop=1;jettySize=auto;html=1;entryX=0.016;entryY=0;entryDx=0;entryDy=0;entryPerimeter=0;exitX=1.129;exitY=0.001;exitDx=0;exitDy=0;exitPerimeter=0;" edge="1" parent="1" source="3nuBFxr9cyL0pnOWT2aG-6" target="4xwUGQLQeTpRIHx0-2DB-8">
          <mxGeometry x="0.0409" y="20" relative="1" as="geometry">
            <mxPoint x="390" y="160" as="sourcePoint" />
            <mxPoint x="555" y="160" as="targetPoint" />
            <Array as="points">
              <mxPoint x="630" y="161" />
            </Array>
            <mxPoint as="offset" />
          </mxGeometry>
        </mxCell>
        <mxCell id="lhS4QoThq6orm3_5Lqhh-12" style="edgeStyle=orthogonalEdgeStyle;rounded=0;orthogonalLoop=1;jettySize=auto;html=1;entryX=1.113;entryY=0.509;entryDx=0;entryDy=0;entryPerimeter=0;" edge="1" parent="1" source="3nuBFxr9cyL0pnOWT2aG-6" target="3nuBFxr9cyL0pnOWT2aG-2">
          <mxGeometry relative="1" as="geometry" />
        </mxCell>
        <mxCell id="lhS4QoThq6orm3_5Lqhh-13" value="{{filteredCNAddresses}" style="edgeLabel;html=1;align=center;verticalAlign=middle;resizable=0;points=[];" vertex="1" connectable="0" parent="lhS4QoThq6orm3_5Lqhh-12">
          <mxGeometry x="-0.2852" y="1" relative="1" as="geometry">
            <mxPoint x="-21" y="-1" as="offset" />
          </mxGeometry>
        </mxCell>
      </root>
    </mxGraphModel>
  </diagram>
</mxfile>
